<svg width="405" height="405" viewBox="0 0 405 405" fill="none" xmlns="http://www.w3.org/2000/svg">
<g opacity="0.4">
<mask id="mask0_8_260" style="mask-type:alpha" maskUnits="userSpaceOnUse" x="0" y="-1" width="393" height="394">
<rect x="-6.10352e-05" y="-0.00012207" width="393" height="393" rx="8" fill="#1C1B1F"/>
</mask>
<g mask="url(#mask0_8_260)">
<g opacity="0.7">
<path d="M375.106 432.968C355.934 431.3 336.968 428.487 318.348 424.559C310.073 422.809 301.674 420.768 294.899 416.118C277.576 404.239 275.803 379.499 278.346 357.823C280.685 337.856 285.445 317.95 292.494 298.649C299.479 279.524 308.781 260.673 311.153 240.892C313.52 221.107 307.016 199.383 289.383 191.337C278.895 186.552 265.96 187.347 254.334 191.394C242.707 195.441 232.171 202.48 222.279 210.049C210.957 218.713 199.546 228.534 185.888 231.495C171.753 234.554 156.848 228.957 149.405 217.78C138.813 201.882 143.847 179.929 146.506 160.095C149.885 134.892 148.516 108.548 136.104 87.6682C123.692 66.7883 98.2921 52.8337 72.7912 58.6798" stroke="#8A8A8A" stroke-miterlimit="10"/>
<path d="M378.719 428.085C359.866 426.463 341.239 423.636 322.991 419.65C314.875 417.88 306.663 415.806 299.998 411.244C286.613 402.078 282.42 385.281 282.236 368.234C282.183 363.593 282.425 358.93 282.868 354.398C284.758 334.904 289.025 315.416 295.54 296.47C301.995 277.705 310.838 259.167 312.925 239.737C314.092 228.841 312.856 217.394 308.733 207.725C305.137 199.306 299.288 192.231 290.908 188.249C289.412 187.542 287.862 186.938 286.268 186.45C276.453 183.425 265.152 184.562 254.782 188.076C251.451 189.201 248.2 190.562 245.027 192.082C236.743 196.055 228.899 201.154 221.399 206.43C209.484 214.788 197.495 223.762 183.634 226.249C169.869 228.721 155.456 223.413 148.122 212.546C137.689 197.079 142.148 175.83 144.269 156.7C144.436 155.189 144.586 153.682 144.712 152.168C146.673 129.286 144.227 105.982 132.538 87.4248C120.074 67.6381 95.2698 54.6398 70.5003 60.6722" stroke="#909090" stroke-miterlimit="10"/>
<path d="M382.339 423.196C363.81 421.616 345.522 418.776 327.634 414.742C319.687 412.952 311.645 410.848 305.096 406.371C291.943 397.373 287.563 381.062 287.061 364.471C286.918 359.946 287.062 355.405 287.395 350.978C288.829 331.962 292.609 312.888 298.595 294.302C304.526 275.892 312.883 257.671 314.705 238.593C315.777 227.358 314.564 215.584 310.453 205.542C306.881 196.822 300.971 189.389 292.43 185.182C290.905 184.426 289.319 183.79 287.679 183.267C277.602 180.036 265.97 181.233 255.234 184.775C251.792 185.908 248.427 187.272 245.145 188.789C236.568 192.749 228.383 197.749 220.525 202.831C208.023 210.88 195.475 219.018 181.385 221.034C168 222.947 154.067 217.91 146.845 207.343C136.576 192.301 140.454 171.764 142.036 153.336C142.163 151.883 142.268 150.43 142.359 148.97C143.689 126.954 140.725 104.733 128.995 87.1984C116.488 68.5057 92.2647 56.4678 68.2385 62.6768" stroke="#959595" stroke-miterlimit="10"/>
<path d="M385.952 418.313C367.742 416.779 349.793 413.925 332.275 409.844C324.493 408.028 316.631 405.905 310.193 401.508C297.268 392.673 292.704 376.852 291.875 360.716C291.64 356.309 291.683 351.884 291.91 347.568C292.895 329.024 296.178 310.364 301.634 292.138C307.042 274.083 314.901 256.179 316.466 237.447C317.436 225.877 316.25 213.772 312.158 203.363C308.604 194.336 302.647 186.552 293.942 182.113C292.383 181.315 290.756 180.639 289.08 180.084C278.736 176.651 266.768 177.903 255.664 181.472C252.112 182.613 248.637 183.985 245.239 185.49C236.369 189.435 227.832 194.335 219.623 199.221C206.528 206.964 193.452 214.268 179.103 215.801C166.124 217.187 152.644 212.39 145.541 202.117C135.426 187.501 138.732 167.674 139.777 149.949C139.858 148.55 139.923 147.155 139.973 145.754C140.67 124.604 137.186 103.462 125.413 86.9591C112.864 69.3603 89.222 58.2727 65.9374 64.6686" stroke="#9B9B9B" stroke-miterlimit="10"/>
<path d="M389.561 413.424C371.681 411.938 354.06 409.069 336.908 404.935C329.285 403.099 321.603 400.946 315.282 396.633C302.588 387.968 297.841 372.637 296.686 356.946C296.364 352.661 296.305 348.352 296.422 344.142C296.957 326.071 299.754 307.825 304.674 289.964C309.552 272.269 316.907 254.67 318.238 236.292C319.097 224.387 317.949 211.951 313.876 201.164C310.339 191.841 304.331 183.7 295.461 179.03C293.872 178.193 292.211 177.475 290.488 176.886C279.882 173.246 267.58 174.553 256.113 178.155C252.445 179.309 248.855 180.683 245.349 182.186C236.186 186.118 227.307 190.919 218.736 195.606C205.048 203.044 191.467 209.531 176.841 210.569C164.274 211.459 151.244 206.861 144.251 196.898C134.294 182.712 137.025 163.591 137.525 146.573C137.566 145.233 137.586 143.892 137.592 142.544C137.652 122.254 133.654 102.201 121.834 86.7252C109.237 70.2251 86.1818 60.0931 63.6405 66.6657" stroke="#A0A0A0" stroke-miterlimit="10"/>
<path d="M393.18 408.536C375.619 407.096 358.337 404.214 341.551 400.026C334.092 398.165 326.59 395.994 320.38 391.76C307.912 383.268 302.984 368.417 301.512 353.182C301.093 349.019 300.938 344.822 300.948 340.723C301.03 323.119 303.338 305.298 307.725 287.791C312.079 270.451 318.906 253.166 320.014 235.143C320.767 222.897 319.657 210.131 315.593 198.975C312.074 189.346 306.015 180.848 296.985 175.953C295.361 175.073 293.67 174.316 291.901 173.693C281.029 169.841 268.394 171.219 256.56 174.848C252.782 176.01 249.078 177.388 245.463 178.889C236.007 182.806 226.783 187.528 217.858 192.003C203.595 199.157 189.504 204.822 174.583 205.343C162.438 205.774 149.846 201.348 142.965 191.684C133.173 177.924 135.329 159.508 135.284 143.198C135.28 141.912 135.26 140.629 135.225 139.341C134.659 119.911 130.138 100.946 118.271 86.4976C105.627 71.086 83.1622 61.9151 61.3523 68.6738" stroke="#A6A6A6" stroke-miterlimit="10"/>
<path d="M396.794 403.652C379.551 402.259 362.614 399.358 346.195 395.118C338.904 393.237 331.579 391.031 325.474 386.881C313.238 378.558 308.129 364.187 306.329 349.407C305.823 345.367 305.56 341.291 305.466 337.292C305.098 320.162 306.914 302.759 310.771 285.612C314.602 268.628 320.897 251.651 321.786 233.987C322.418 221.406 321.356 208.31 317.311 196.776C313.811 186.841 307.699 177.995 298.504 172.869C296.852 171.941 295.115 171.151 293.309 170.495C282.175 166.436 269.205 167.869 257.003 171.535C253.114 172.706 249.296 174.086 245.568 175.579C235.819 179.483 226.25 184.1 216.974 188.378C202.117 195.227 187.553 200.102 172.323 200.101C160.611 200.099 148.446 195.819 141.677 186.454C132.043 173.125 133.624 155.415 133.041 139.807C132.996 138.58 132.936 137.346 132.855 136.121C131.657 117.557 126.613 99.6804 114.705 86.254C102.019 71.9364 80.1339 63.7258 59.0673 70.6613" stroke="#ABABAB" stroke-miterlimit="10"/>
<path d="M400.407 398.769C383.489 397.417 366.885 394.507 350.836 390.219C343.705 388.318 336.564 386.089 330.571 382.017C318.567 373.863 313.275 359.983 311.143 345.653C310.545 341.729 310.181 337.77 309.981 333.882C309.164 317.224 310.487 300.24 313.82 283.449C317.121 266.825 322.874 250.155 323.561 232.848C324.077 219.926 323.057 206.504 319.026 194.597C315.548 184.361 309.381 175.154 300.026 169.802C298.344 168.836 296.572 168.003 294.72 167.313C283.319 163.052 270.017 164.545 257.454 168.234C253.456 169.412 249.521 170.805 245.68 172.292C235.638 176.181 225.722 180.704 216.09 184.779C200.64 191.323 185.615 195.435 170.06 194.879C158.779 194.48 147.038 190.305 140.392 181.24C130.922 168.337 131.917 151.332 130.8 136.432C130.71 135.258 130.61 134.083 130.488 132.917C128.658 115.219 123.096 98.4257 111.141 86.0264C98.4071 72.8074 77.11 65.5424 56.7851 72.6647" stroke="#B1B1B1" stroke-miterlimit="10"/>
<path d="M404.027 393.881C387.427 392.575 371.163 389.652 355.479 385.311C348.512 383.385 341.547 381.131 335.67 377.144C323.897 369.159 318.444 355.76 315.969 341.889C315.29 338.083 314.818 334.245 314.512 330.468C313.239 314.288 314.076 297.718 316.875 281.281C319.652 265.012 324.847 248.655 325.348 231.699C325.737 218.436 324.77 204.689 320.759 192.404C317.294 181.867 311.08 172.308 301.562 166.715C299.845 165.705 298.039 164.829 296.145 164.111C284.481 159.643 270.845 161.191 257.913 164.917C253.804 166.104 249.755 167.5 245.802 168.979C235.473 172.849 225.199 177.277 215.215 181.155C199.173 187.394 183.686 190.768 167.816 189.634C156.974 188.858 145.659 184.767 139.12 176.007C129.804 163.529 130.228 147.234 128.572 133.038C128.442 131.922 128.297 130.801 128.13 129.688C125.667 112.856 119.589 97.1459 107.587 85.7736C94.8062 73.6432 74.0936 67.3439 54.506 74.6477" stroke="#B7B7B7" stroke-miterlimit="10"/>
<path d="M407.636 388.992C391.366 387.733 375.43 384.796 360.112 380.402C353.31 378.451 346.524 376.177 340.758 372.27C329.217 364.453 323.583 351.534 320.78 338.119C320.01 334.43 319.436 330.708 319.024 327.042C317.302 311.335 317.646 295.184 319.915 279.107C322.169 263.193 326.806 247.148 327.114 230.548C327.367 216.943 326.469 202.868 322.47 190.22C319.023 179.376 312.762 169.466 303.074 163.646C301.322 162.594 299.48 161.684 297.542 160.922C285.612 156.242 271.638 157.855 258.35 161.609C254.131 162.804 249.968 164.203 245.906 165.68C235.283 169.537 224.664 173.86 214.327 177.55C197.692 183.484 181.75 186.152 165.548 184.407C155.141 183.286 144.247 179.248 137.824 170.792C128.672 158.74 128.515 143.155 126.325 129.667C126.15 128.605 125.964 127.543 125.757 126.489C122.662 110.523 116.067 95.8957 104.024 85.5457C91.2005 74.5092 71.0741 69.1656 52.2281 76.6562" stroke="#BCBCBC" stroke-miterlimit="10"/>
<path d="M411.255 384.104C395.304 382.892 379.713 379.936 364.755 375.494C358.122 373.523 351.506 371.22 345.857 367.396C334.547 359.749 328.726 347.315 325.596 334.355C324.738 330.788 324.063 327.182 323.54 323.622C321.369 308.388 321.22 292.655 322.956 276.933C324.68 261.379 328.744 245.64 328.876 229.393C328.987 215.45 328.157 201.047 324.177 188.021C320.754 176.876 314.432 166.608 304.589 160.558C302.809 159.457 300.926 158.509 298.946 157.719C286.754 152.832 272.45 154.506 258.788 158.292C254.459 159.495 250.186 160.902 246.005 162.376C235.09 166.219 224.123 170.447 213.431 173.935C196.203 179.553 179.805 181.551 163.276 179.174C153.308 177.739 142.835 173.728 136.53 165.567C127.536 153.946 126.804 139.067 124.07 126.286C123.85 125.278 123.623 124.274 123.375 123.279C119.648 108.178 112.536 94.635 100.445 85.312C87.5741 75.3742 68.0339 70.9862 49.9313 78.6535" stroke="#C2C2C2" stroke-miterlimit="10"/>
<path d="M414.868 379.22C399.236 378.055 383.984 375.085 369.399 370.585C362.924 368.594 356.499 366.262 350.955 362.523C339.873 355.039 333.873 343.1 330.417 330.585C329.468 327.136 328.685 323.651 328.063 320.197C325.441 305.435 324.796 290.116 326.006 274.759C327.206 259.561 330.686 244.137 330.652 228.243C330.621 213.963 329.86 199.231 325.894 185.832C322.489 174.381 316.12 163.761 306.107 157.485C304.296 156.346 302.379 155.355 300.352 154.531C287.893 149.442 273.254 151.171 259.229 154.989C254.79 156.201 250.396 157.615 246.109 159.077C234.901 162.906 223.582 167.035 212.544 170.321C194.724 175.634 177.865 176.992 161.01 173.937C151.468 172.207 141.434 168.199 135.235 160.343C126.4 149.152 125.099 134.974 121.82 122.9C121.559 121.951 121.288 121 121.005 120.059C116.646 105.825 109.016 93.3647 96.8792 85.0686C83.9613 76.2194 65.0073 72.7871 47.6463 80.6413" stroke="#C7C7C7" stroke-miterlimit="10"/>
<path d="M418.482 374.336C403.174 373.213 388.251 370.229 374.04 365.687C367.73 363.67 361.48 361.314 356.052 357.659C345.196 350.349 339.015 338.891 335.242 326.831C334.195 323.504 333.32 320.136 332.588 316.787C329.513 302.493 328.379 287.598 329.055 272.596C329.732 257.753 332.622 242.639 332.427 227.103C332.243 212.486 331.561 197.425 327.615 183.648C324.228 171.891 317.802 160.919 307.635 154.412C305.79 153.231 303.837 152.206 301.775 151.339C289.054 146.043 274.084 147.832 259.688 151.673C255.129 152.892 250.631 154.309 246.235 155.77C234.733 159.584 223.062 163.587 211.678 166.707C193.255 171.679 175.928 172.473 158.769 168.707C149.654 166.707 140.049 162.676 133.966 155.125C125.291 144.354 123.413 130.891 119.595 119.521C119.29 118.625 118.978 117.733 118.65 116.846C113.655 103.471 105.506 92.1049 93.3276 84.8312C80.3674 77.0759 61.9936 74.604 45.3699 82.6396" stroke="#CDCDCD" stroke-miterlimit="10"/>
<path d="M422.097 369.443C407.112 368.371 392.529 365.363 378.679 360.773C372.534 358.731 366.463 356.356 361.146 352.78C350.522 345.639 344.159 334.661 340.053 323.061C338.915 319.851 337.938 316.599 337.1 313.362C333.575 299.541 331.955 285.06 332.096 270.422C332.242 255.939 334.544 241.135 334.199 225.948C333.852 210.992 333.265 195.6 329.327 181.454C325.957 169.401 319.486 158.067 309.154 151.329C307.281 150.1 305.287 149.037 303.184 148.141C290.197 142.633 274.895 144.483 260.13 148.36C255.461 149.588 250.849 151.008 246.34 152.461C234.546 156.261 222.527 160.17 210.787 163.087C191.778 167.749 173.96 167.988 156.498 163.465C147.802 161.21 138.638 157.147 132.667 149.894C124.151 139.554 121.697 126.797 117.341 116.13C117.001 115.288 116.639 114.454 116.27 113.626C110.648 101.112 101.976 90.834 89.7512 84.5873C76.7427 77.9306 58.961 76.4096 43.0747 84.6267" stroke="#D2D2D2" stroke-miterlimit="10"/>
<path d="M425.71 364.559C411.045 363.534 396.801 360.512 383.316 355.869C377.334 353.813 371.44 351.403 366.239 347.911C355.846 340.939 349.291 330.45 344.868 319.297C343.643 316.208 342.565 313.073 341.616 309.942C337.636 296.598 335.529 282.531 335.136 268.248C334.759 254.12 336.46 239.636 335.965 224.798C335.456 209.503 334.958 193.783 331.033 179.264C327.682 166.905 321.159 155.224 310.661 148.255C308.758 146.988 306.73 145.882 304.58 144.952C291.331 139.238 275.693 141.152 260.567 145.053C255.788 146.288 251.059 147.721 246.438 149.167C234.351 152.953 221.986 156.757 209.889 159.482C190.286 163.838 171.951 163.562 154.23 158.238C145.941 155.748 137.23 151.633 131.378 144.675C123.025 134.761 119.99 122.714 115.096 112.749C114.711 111.96 114.308 111.186 113.899 110.416C107.645 98.7686 98.4556 89.5737 86.1876 84.3594C73.1369 78.7967 55.9354 78.2361 40.7924 86.6298" stroke="#D8D8D8" stroke-miterlimit="10"/>
<path d="M429.324 359.676C414.983 358.692 401.072 355.661 387.953 350.966C382.136 348.884 376.417 346.45 371.332 343.043C361.17 336.239 354.428 326.235 349.688 315.538C348.371 312.566 347.186 309.552 346.137 306.527C341.707 293.656 339.108 280.008 338.185 266.085C337.284 252.312 338.38 238.142 337.74 223.658C337.051 208.029 336.659 191.978 332.759 177.086C329.425 164.42 322.851 152.383 312.194 145.188C310.256 143.878 308.193 142.728 306.002 141.77C292.485 135.854 276.517 137.819 261.023 141.756C256.133 143 251.29 144.436 246.56 145.88C234.186 149.647 221.468 153.362 209.02 155.889C188.83 159.935 169.953 159.199 151.986 153.028C144.09 150.313 135.847 146.125 130.105 139.477C121.91 129.994 118.301 118.652 112.868 109.39C112.442 108.66 111.994 107.939 111.545 107.228C104.658 96.4467 94.952 88.3352 82.643 84.1431C69.5456 79.669 52.9304 80.064 38.529 88.6446" stroke="#DEDEDE" stroke-miterlimit="10"/>
<path d="M432.943 354.788C418.921 353.851 405.349 350.806 392.602 346.052C386.95 343.946 381.416 341.488 376.436 338.164C366.507 331.53 359.577 322.011 354.51 311.768C353.101 308.914 351.818 306.022 350.663 303.107C345.784 290.709 342.693 277.48 341.242 263.907C339.811 250.494 340.298 236.632 339.522 222.504C338.649 206.544 338.368 190.158 334.481 174.893C331.171 161.926 324.54 149.536 313.717 142.111C311.745 140.757 309.647 139.574 307.415 138.578C293.636 132.455 277.327 134.479 261.47 138.45C256.47 139.701 251.513 141.14 246.67 142.576C234.003 146.33 220.939 149.94 208.14 152.27C187.357 156.011 167.9 154.852 149.726 147.786C142.21 144.866 134.446 140.596 128.817 134.248C120.781 125.195 116.597 114.549 110.624 106C110.154 105.323 109.671 104.656 109.17 104.004C101.652 94.0876 91.4243 87.0541 79.0725 83.8945C65.9269 80.519 49.8979 81.8697 36.2338 90.6317" stroke="#E3E3E3" stroke-miterlimit="10"/>
<path d="M436.552 349.899C422.859 349.009 409.622 345.945 397.24 341.148C391.746 339.021 386.392 336.534 381.529 333.295C371.831 326.829 364.714 317.796 359.325 308.004C357.824 305.276 356.441 302.49 355.18 299.687C349.851 287.761 346.267 274.951 344.286 261.738C342.332 248.68 342.202 235.142 341.298 221.354C340.23 205.064 340.077 188.337 336.204 172.699C332.912 159.426 326.23 146.679 315.247 139.028C313.25 137.631 311.107 136.405 308.833 135.38C294.788 129.045 278.153 131.135 261.929 135.133C256.819 136.393 251.746 137.844 246.79 139.273C233.83 143.013 220.414 146.523 207.263 148.656C185.888 152.092 165.811 150.569 147.474 142.555C140.329 139.428 133.05 135.073 127.537 129.029C119.661 120.396 114.901 110.466 108.383 102.625C107.872 102.007 107.344 101.393 106.803 100.799C98.6527 91.7491 87.9077 85.799 75.509 83.6664C62.3211 81.3849 46.8782 83.6912 33.9515 92.6347" stroke="#E9E9E9" stroke-miterlimit="10"/>
<path d="M440.172 345.01C426.798 344.167 413.899 341.09 401.883 336.24C396.558 334.093 391.379 331.582 386.627 328.422C377.155 322.13 369.833 313.595 364.147 304.234C362.548 301.629 361.073 298.96 359.702 296.262C353.92 284.804 349.843 272.412 347.333 259.559C344.859 246.862 344.097 233.642 343.066 220.194C341.792 203.573 341.771 186.511 337.912 170.5C334.637 156.93 327.903 143.827 316.762 135.939C314.731 134.5 312.558 133.235 310.237 132.177C295.925 125.64 278.954 127.785 262.367 131.815C257.147 133.083 251.959 134.538 246.891 135.959C233.638 139.685 219.881 143.095 206.373 145.036C184.405 148.156 163.664 146.324 145.204 137.312C138.41 133.993 131.646 129.539 126.245 123.794C118.527 115.592 113.191 106.367 106.135 99.2287C105.579 98.6644 105.011 98.1097 104.429 97.5746C95.6465 89.3902 84.3783 84.5282 71.9385 83.4179C58.698 82.2296 43.8456 85.4971 31.6622 94.6172" stroke="#EEEEEE" stroke-miterlimit="10"/>
<path d="M443.785 340.127C430.73 339.33 418.17 336.239 406.52 331.337C401.36 329.165 396.356 326.629 391.72 323.553C382.475 317.424 374.97 309.38 368.961 300.48C367.27 297.992 365.698 295.444 364.217 292.852C357.979 281.871 353.416 269.894 350.376 257.401C347.378 245.059 345.989 232.161 344.835 219.059C343.344 202.116 343.466 184.71 339.627 168.321C336.37 154.445 329.59 140.99 318.278 132.876C316.213 131.394 314.003 130.096 311.643 128.999C297.068 122.255 279.766 124.461 262.812 128.518C257.482 129.794 252.18 131.252 247.003 132.671C233.457 136.383 219.349 139.694 205.489 141.437C182.929 144.252 161.463 142.157 142.945 132.096C136.487 128.589 130.246 124.035 124.957 118.59C117.404 110.814 111.487 102.3 103.897 95.8691C103.3 95.3637 102.687 94.8624 102.061 94.3807C92.6412 87.0567 80.8602 83.2835 68.3734 83.2002C55.0906 83.1059 40.8201 87.3236 29.3784 96.6306" stroke="#F4F4F4" stroke-miterlimit="10"/>
<path d="M447.398 335.243C434.668 334.488 422.441 331.388 411.163 326.428C406.167 324.231 401.343 321.676 396.819 318.68C387.806 312.72 380.117 305.166 373.782 296.711C372.005 294.345 370.321 291.913 368.739 289.427C362.052 278.919 356.996 267.36 353.422 255.222C349.895 243.24 347.878 230.665 346.607 217.904C344.888 200.638 345.165 182.889 341.339 166.127C338.101 151.945 331.264 138.138 319.793 129.788C317.698 128.267 315.45 126.921 313.047 125.795C298.21 118.845 280.567 121.11 263.246 125.195C257.806 126.479 252.39 127.939 247.098 129.362C233.259 133.059 218.799 136.27 204.588 137.817C181.441 140.322 159.192 138.011 140.67 126.848C134.534 123.147 128.827 118.495 123.655 113.355C116.259 106.009 109.767 98.2002 101.639 92.4724C100.997 92.0204 100.343 91.578 99.6821 91.1504C89.6306 84.6921 77.3324 82.0024 64.7986 82.9461C51.4735 83.9457 37.7832 89.1237 27.0788 98.6122" stroke="#F9F9F9" stroke-miterlimit="10"/>
<path d="M451.013 330.35C422.181 328.706 396.165 314.04 378.598 292.946C361.036 271.847 351.503 244.734 348.383 216.754C346.421 199.17 346.873 181.068 343.066 163.939C339.258 146.809 330.323 130.122 314.464 122.608C294.617 113.198 269.809 120.171 247.223 126.064C210.066 135.751 168.214 141.481 138.423 121.623C123.586 111.731 113.214 96.2679 97.3253 87.9471C75.2911 76.4008 44.1461 81.8473 24.817 100.617" stroke="white" stroke-miterlimit="10"/>
</g>
</g>
</g>
</svg>
