<svg xmlns="http://www.w3.org/2000/svg" width="404" height="321" viewBox="0 0 404 321" fill="none">
  <path d="M0 0H404V321H0V0Z" />
  <path
    d="M110.107 273.524C110.916 272.552 111.021 271.549 110.641 270.456C106.117 257.46 103.908 244.059 103.593 230.318C103.325 219.029 104.013 207.82 106.352 196.75C108.497 186.561 112.179 176.988 118.054 168.337C119.154 166.719 120.409 165.141 121.825 163.797C127.376 158.521 133.988 157.776 140.713 161.539C145.237 164.072 148.886 167.625 151.719 171.89C155.15 177.053 158.306 182.402 161.494 187.727C166.326 195.803 171.076 203.92 175.859 212.02C180.625 220.097 187.471 225.915 195.726 230.156C204.02 234.412 212.833 236.573 222.188 236.185C233.453 235.707 243.091 231.532 250.86 223.245C251.305 222.775 251.742 222.29 252.244 221.885C258.014 217.224 263.897 212.725 270.727 209.69C274.126 208.185 277.703 207.351 281.45 207.351C285.237 207.359 286.831 209.026 286.685 212.805C286.629 214.165 286.596 215.525 286.596 216.876C286.588 225.292 286.621 233.708 286.564 242.117C286.556 243.686 286.313 245.273 286.03 246.826C285.577 249.327 284.177 251.245 281.789 252.103C278.973 253.106 276.06 253.875 273.155 254.611C270.937 255.178 268.663 255.534 266.414 255.995C262.764 256.756 261.299 258.544 261.34 262.291C261.364 264.363 261.437 266.426 261.542 268.49C261.639 270.465 262.764 271.525 264.828 271.517C267.773 271.508 270.711 271.379 273.656 271.371C293.532 271.355 313.407 271.347 333.274 271.371C340.816 271.379 348.35 271.476 355.892 271.517C357.025 271.525 358.158 271.46 359.275 271.33C362.116 271.007 363.613 269.591 363.88 266.726C364.042 265.002 364.042 263.222 363.799 261.514C363.346 258.293 361.662 256.699 358.425 255.955C354.08 254.951 349.734 253.98 345.429 252.839C344.094 252.483 342.799 251.763 341.658 250.97C340.314 250.039 339.675 248.259 339.732 246.406C341.091 246.697 342.435 246.988 343.778 247.28C351.992 249.076 360.279 250.16 368.703 249.918C376.569 249.683 384.216 248.429 391.2 244.504C394.397 242.707 397.132 240.36 399.309 237.39C399.495 237.14 399.649 236.864 399.875 236.516C397.86 235.829 395.878 235.756 393.879 235.91C383.472 236.686 373.194 236.015 363.16 232.964C349.03 228.667 338.032 220.113 329.551 208.136C326.225 203.442 322.956 198.692 319.355 194.217C313.107 186.456 305.306 180.783 295.66 177.919C280.713 173.476 266.576 175.232 253.352 183.624C249.015 186.375 244.75 189.264 240.364 191.943C236.261 194.452 231.907 196.402 227.1 197.171C220.683 198.198 215.237 196.272 210.624 191.789C207.225 188.487 204.627 184.555 202.353 180.46C198.768 173.986 195.426 167.382 191.971 160.843C187.504 152.395 182.681 144.173 176.514 136.825C170.906 130.132 164.877 123.877 157.424 119.175C148.134 113.316 137.978 111.01 127.109 112.208C110.18 114.077 97.159 122.687 87.1081 136.121C80.8121 144.537 77.0653 154.151 74.5242 164.259C70.4942 180.314 70.9312 196.37 74.8965 212.368C79.3474 230.35 87.0676 246.77 98.7856 261.174C102.209 265.382 106.085 269.21 109.759 273.216C109.832 273.321 109.937 273.394 110.107 273.524Z"
    fill="#fff" />
  <path
    d="M338.243 136.08C338.243 122.064 338.243 108.056 338.243 94.0399C338.243 88.6341 338.226 83.2283 338.291 77.8225C338.332 74.4965 338.38 71.1543 338.655 67.8444C339.052 62.997 341.48 59.4039 346.125 57.7935C350.05 56.434 354.128 55.5276 358.142 54.4271C358.765 54.2571 359.413 54.1762 360.028 53.9739C362.536 53.1484 363.888 51.3195 363.88 48.6571C363.872 46.4964 363.726 44.3276 363.726 42.1669C363.726 40.7184 363.985 39.2617 363.896 37.8212C363.734 35.1669 362.253 33.5403 359.599 33.2813C357.389 33.0629 355.148 33.16 352.922 33.1761C345.291 33.2247 337.652 33.338 330.021 33.3299C326.08 33.3299 322.13 33.16 318.189 33.0143C312.355 32.7958 307.556 35.0941 303.453 39.0513C297.748 44.5542 292.091 50.1057 286.394 55.6167C278.164 63.5797 269.901 71.5184 261.671 79.4734C254.574 86.3277 247.485 93.1902 240.404 100.069C235.298 105.029 230.216 110.014 225.093 114.959C224.308 115.712 223.402 116.367 222.471 116.942C220.917 117.905 219.234 117.986 217.705 116.974C216.369 116.092 215.091 115.072 213.934 113.956C206.011 106.276 198.145 98.5393 190.223 90.8676C180.787 81.7312 171.31 72.6352 161.858 63.523C153.564 55.5276 145.269 47.5403 136.974 39.553C135.671 38.2987 134.376 37.0282 133.057 35.79C131.131 33.9773 128.881 33.1195 126.195 33.1438C116.654 33.2166 107.137 33.2247 97.6282 33.2409C91.8663 33.249 86.1045 33.2247 80.3507 33.2166C77.9958 33.2085 77.0409 33.8883 76.2559 36.138C73.2293 44.8294 77.5345 52.8652 86.4929 55.3982C89.2201 56.167 91.9392 57.049 94.553 58.1253C98.5669 59.7843 100.663 63.0132 101.084 67.2618C101.367 70.0861 101.472 72.9427 101.504 75.7832C101.594 83.4225 101.618 91.0537 101.65 98.6931C101.666 102.116 101.553 105.547 101.683 108.971C101.772 111.374 102.937 112.191 105.243 111.479C107.582 110.759 109.832 109.739 112.13 108.898C119.607 106.162 127.295 104.592 135.307 104.949C140.122 105.167 144.791 106.106 149.339 107.692C149.792 107.854 150.262 107.999 150.731 108.113C151.856 108.38 152.811 108.121 153.661 107.303C157.019 104.066 159.503 103.921 162.951 107.036C166.811 110.524 170.525 114.182 174.288 117.783C181.467 124.646 188.645 131.508 195.798 138.395C200.435 142.862 205.032 147.369 209.645 151.861C211.36 153.536 213.027 155.252 214.759 156.902C215.431 157.55 216.175 158.141 216.944 158.667C218.943 160.042 221.007 160.091 222.997 158.683C224.074 157.914 225.093 157.056 226.04 156.134C235.306 147.143 244.523 138.104 253.797 129.121C261.259 121.902 268.777 114.74 276.278 107.554C276.885 106.972 277.533 106.429 278.212 105.944C280.001 104.649 281.911 104.536 283.885 105.515C285.779 106.454 286.54 108.072 286.604 110.095C286.629 110.969 286.612 111.835 286.612 112.709C286.669 126.11 286.726 139.504 286.774 152.905C286.79 156.563 286.685 160.22 286.766 163.87C286.847 167.407 288.32 169.106 291.848 169.77C296.607 170.66 301.211 171.979 305.573 174.115C312.678 177.587 318.497 182.628 323.474 188.722C327.544 193.707 331.655 198.668 335.774 203.62C335.977 203.863 336.511 204.106 336.754 204.009C337.304 203.79 338.21 203.807 338.056 202.787C338.04 202.69 338.056 202.593 338.056 202.496C338.065 192.299 338.081 182.102 338.089 171.906C338.097 159.961 338.089 148.017 338.089 136.08C338.137 136.08 338.186 136.08 338.243 136.08Z"
    fill="#F45C32" />
  <path
    d="M26.8753 95.092C26.9157 111.641 39.5724 124.565 56.3158 124.104C72.3632 123.658 84.4211 111.22 84.2349 95.092C84.0407 78.6561 71.4083 66.3555 54.7216 66.7196C38.836 67.0676 26.8105 79.611 26.8753 95.092Z"
    fill="#F45C32" />
</svg>